<?xml version="1.0" encoding="utf-8"?>
<!-- Generator: Adobe Illustrator 18.1.1, SVG Export Plug-In . SVG Version: 6.00 Build 0)  -->
<svg version="1.1" id="Layer_1" xmlns="http://www.w3.org/2000/svg" xmlns:xlink="http://www.w3.org/1999/xlink" x="0px" y="0px"
	 viewBox="126 -73.1 632.1 163" enable-background="new 126 -73.1 632.1 163" xml:space="preserve">
<g>
	<polygon fill="#FFFFFF" points="182.1,44.5 193.7,44.5 193.7,-22.9 182.1,-14.4 	"/>
	<path fill="#FFFFFF" d="M228.6-6.9c-7.4,0-16,1.6-23,4.3v47.1h11.2V4.8c2.9-0.9,6.9-1.5,10.9-1.5c6.2,0,10.8,2.6,10.8,9.9v31.3
		h11.1V12.1C249.6-2,241.4-6.9,228.6-6.9z"/>
	<path fill="#FFFFFF" d="M283.6-6.9c-7.4,0-16,1.6-23,4.3v47.1h11.2V4.8c3-0.9,6.9-1.5,10.9-1.5c6.2,0,10.8,2.6,10.8,9.9v31.3h11.1
		V12.1C304.6-2,296.4-6.9,283.6-6.9z"/>
	<path fill="#FFFFFF" d="M534.4-6.9c-13.8,0-24.2,10.7-24.2,26.6c0,15.9,10.7,25.8,26.3,25.8c6.5,0,13.1-1.5,17.7-4.6v-0.2l-5-6.9
		c-3.5,1.5-7.2,2.2-11.8,2.2c-7.8,0-15.5-4.9-16.2-13.8v-0.2h34.9v-5.7C555.9,2.5,549-6.9,534.4-6.9z M521.3,14.6
		C522.8,7,527.6,2.5,534,2.5c7.2,0,11.1,4.3,11.3,12.1H521.3z"/>
	<path fill="#FFFFFF" d="M339.4-6.9c-15,0-25.9,10.7-25.9,26.3c0,15.5,10.9,26.2,25.9,26.2c15.1,0,26-10.7,26-26.2
		C365.4,3.8,354.5-6.9,339.4-6.9z M339.4,36c-8.4,0-14.5-6.5-14.5-16.6c0-10.2,6.1-16.7,14.5-16.7c8.6,0,14.6,6.5,14.6,16.7
		C354,29.5,348,36,339.4,36z"/>
	<polygon fill="#FFFFFF" points="393.3,33.6 379.1,-5.8 367.2,-5.8 386.6,44.5 399.4,44.5 418.9,-5.8 407.3,-5.8 	"/>
	<path fill="#FFFFFF" d="M442.9-6.9c-6.2,0-11.9,1.6-16.3,4.1v9.8c4.2-2.4,8.7-4.1,14.5-4.1c5.6,0,9.6,2.5,9.6,7.9V15h-5.6
		c-14.5,0-23.3,5-23.3,15.2c0,11.3,9.5,15.3,22.6,15.3c5.7,0,12.5-0.8,17.2-2V10.2C461.7-2.4,453.9-6.9,442.9-6.9z M450.7,36.5
		c-2,0.3-4.4,0.6-6.1,0.6c-6.8,0-11.6-2-11.6-7.3c0-5.1,5.1-7.4,12.9-7.4h4.8L450.7,36.5L450.7,36.5z"/>
	<path fill="#FFFFFF" d="M488.6,28.1V4.2h14.3v-9.4h-14.3v-17.7l-11.1,8.1v9.6h-7.6v9.4h7.6v26.4c0,11.5,6.9,15.5,15.1,15.5
		c4.8,0,8.9-1,12.1-2.7V33.4c-3.1,1.8-5.9,2.8-9.2,2.8C491.2,36.2,488.6,34.2,488.6,28.1z"/>
	<path fill="#FFFFFF" d="M625.7,36.7c-4,0.7-8.1,1.1-13.3,1.1c-10,0-16.8-3.4-16.8-16.3v-44.4l-11.6,8.4v38
		c0,18.7,13,24.2,28.4,24.2c8.1,0,18.6-1.4,24.8-3.1v-67.5h-11.6L625.7,36.7L625.7,36.7z"/>
	<polygon fill="#FFFFFF" points="650.3,44.5 661.9,44.5 661.9,-22.8 656.1,-22.8 650.3,-22.8 650.3,8.6 	"/>
	<polygon fill="#FFFFFF" points="702,-22.8 689.4,-22.8 664.9,10.8 689.4,44.5 702,44.5 677.5,10.8 	"/>
</g>
</svg>
