<?xml version="1.0" encoding="UTF-8" standalone="no"?>
<!-- Created with Inkscape (http://www.inkscape.org/) -->

<svg
   xmlns:dc="http://purl.org/dc/elements/1.1/"
   xmlns:cc="http://creativecommons.org/ns#"
   xmlns:rdf="http://www.w3.org/1999/02/22-rdf-syntax-ns#"
   xmlns:svg="http://www.w3.org/2000/svg"
   xmlns="http://www.w3.org/2000/svg"
   xmlns:sodipodi="http://sodipodi.sourceforge.net/DTD/sodipodi-0.dtd"
   xmlns:inkscape="http://www.inkscape.org/namespaces/inkscape"
   version="1.0"
   width="1450.92"
   height="2375"
   viewBox="0 0 903 1108"
   id="svg2"
   inkscape:version="0.48.0 r9654"
   sodipodi:docname="United_Kingdom_Map_-_Region.svg">
  <metadata
     id="metadata30">
    <rdf:RDF>
      <cc:Work
         rdf:about="">
        <dc:format>image/svg+xml</dc:format>
        <dc:type
           rdf:resource="http://purl.org/dc/dcmitype/StillImage" />
        <dc:title />
      </cc:Work>
    </rdf:RDF>
  </metadata>
  <sodipodi:namedview
     pagecolor="#ffffff"
     bordercolor="#666666"
     borderopacity="1"
     objecttolerance="10"
     gridtolerance="10"
     guidetolerance="10"
     inkscape:pageopacity="0"
     inkscape:pageshadow="2"
     inkscape:window-width="1440"
     inkscape:window-height="852"
     id="namedview120"
     showgrid="false"
     inkscape:zoom="0.35355339"
     inkscape:cx="769.39121"
     inkscape:cy="1545.2909"
     inkscape:window-x="0"
     inkscape:window-y="0"
     inkscape:window-maximized="1"
     inkscape:current-layer="Scotland" />
  <defs
     id="defs4" />
  <g
     transform="matrix(0.900176,0,0,0.900176,85.6568,56.7095)"
     id="map"
     class="map"
     style="fill-opacity:1">
    <g
       id="Scotland"
       class="Scotland"
       style="fill:#999999;fill-opacity:1;stroke:none;stroke-opacity:1">
      <path
         style="fill:#999999;fill-opacity:1;fill-rule:evenodd;stroke:none"
         d="m 895.8125,26.1875 -3.15625,10.03125 -4.53125,15.15625 4.53125,8.0625 3.75,-0.375 1.375,-10.25 6.09375,-6.09375 1.78125,-11.03125 -9.84375,-5.5 z m 102.90625,3.875 -4.53125,8.4375 8.0937,5.71875 11.8126,1.96875 -2.7813,-7.28125 -5.9063,-8.46875 -6.68745,-0.375 z m 36.81245,8.25 -2.125,10.40625 6.0626,-0.15625 2.375,-4.34375 8.875,2.375 0.7812,-7.09375 -9.4688,2.34375 -6.5,-3.53125 z m -2.125,10.40625 -1.2187,0.03125 1.1875,0.1875 0.031,-0.21875 z m -152.7812,0.5 -6.28125,4.125 -3.9375,33.46875 6.875,6.5 5.34375,0.1875 3.71875,-12.40625 -3.9375,-9.0625 L 887.71875,55.5 880.625,49.21875 z m 136.4062,2.28125 -3.3437,15.5625 7.0937,1.5625 3.3438,-11.8125 -7.0938,-5.3125 z m -24.81245,2.375 -4.3125,3.9375 4.90625,9.84375 9.4687,0.78125 -0.2187,-9.65625 -9.84375,-4.90625 z m 38.59375,7.28125 -4.125,16.53125 11.8125,0.1875 1.1875,-5.5 -4.7187,-8.09375 -4.1563,-3.125 z m -53.9375,3.9375 -8.46875,5.6875 -0.78125,24.03125 8.25,1.96875 6.71875,8.0625 17.3125,-4.53125 11.21875,12.21875 13,-11.8125 -20.0938,-10.625 -11.5937,-4.9375 5.90625,-9.4375 L 984.9375,65.875 976.875,65.09375 z M 901.71875,67.5 l -10.4375,1.59375 2.75,9.4375 0.78125,0 7.5,0 4.125,-5.125 L 901.71875,67.5 z m -52.59375,2.375 -6.09375,10.4375 -12,13 10.21875,0 5.3125,22.4375 12.03125,-3.9375 -5.3125,10.21875 -20.5,2.5625 -6.875,7.28125 13.96875,17.3125 6.5,0 15.15625,-9.84375 -0.59375,34.46875 -6.6875,11.59375 2.5625,12 7.28125,2.5625 0,-11.21875 6.90625,-16.90625 -1.59375,-13 12.40625,-6.5 -10.625,-13.375 6.5,-9.65625 -7.46875,-6.09375 14.15625,-21.0625 -12.40625,-1.1875 -13.1875,-9.625 0,-14.78125 -9.65625,-6.6875 z m 159.0625,7.03125 -4.1563,9.03125 9.6563,0.8125 5.5,-4.15625 -2.9375,-5.6875 -8.0625,0 z m -43.125,24.59375 -5.125,7.28125 6.875,14.375 10.4375,6.875 8.6875,-0.1875 0.96875,-4.9375 -7.28125,-10.8125 -7.6875,-9.25 -6.875,-3.34375 z m -72.40625,13.0625 -5.125,1.96875 -1.5625,5.3125 2.5625,1.1875 5.3125,-2.78125 -1.1875,-5.6875 z m 114.71875,4.84375 -9.625,3.75 0.375,12.78125 5.5312,0.59375 1.375,-3.9375 4.7188,-5.71875 -2.375,-7.46875 z M 794,147.21875 l -4.71875,5.3125 0.40625,5.90625 4.90625,1.78125 3.34375,-4.53125 L 794,147.21875 z m -81.9375,106.65625 7.21875,12.28125 -2.75,6.125 -30.09375,-10.625 -27.78125,9.46875 -42.40625,5.0625 -28.34375,6.125 -23.40625,-12.84375 -13.9375,6.71875 -14.5,-6.71875 -23.875,-15.03125 -9.46875,9.46875 -11.21875,22.3125 15.59375,17.25 -14.40625,3.875 -7.8125,6.15625 7.8125,25.625 -25.625,6.625 -16.1875,3.3125 12.28125,19.46875 4.96875,13.9375 -12.78125,0 -13.9375,-2.71875 22.34375,23.375 17.71875,19.46875 -27.28125,1.09375 -13.84375,13.90625 -19,-12.75 -7.21875,15 -13.34375,-2.8125 -8.96875,3.875 0,23.96875 L 408,474.34375 390.75,495 l 17.8125,17.71875 4.96875,8.375 -7.1875,1.1875 -18.90625,-12.875 -5.09375,14.53125 -1.65625,16.65625 11.125,22.3125 23.375,1.65625 -13.8125,16.65625 -22.34375,7.78125 -12.75,-12.75 -15.125,-11.125 L 342.875,549.53125 346.1875,522.75 346.78125,503.28125 328.375,470.4375 313.84375,482.125 315,503.84375 323.875,520.5 l -4.375,5.65625 -8.375,-8.375 -14.53125,-13.9375 -11.125,-4.46875 -4.96875,8.96875 3.3125,23.375 -16.75,-15.59375 -5.5625,11.125 2.84375,18.40625 12.28125,11.6875 8.84375,2.125 9.46875,-16.0625 12.875,13.34375 -8.96875,14.4375 22.3125,33.40625 20.5625,-2.71875 7.21875,13.90625 10.03125,-14.5 8.96875,4.96875 -3.90625,12.28125 L 354,640.25 l 13.34375,-4.5 8.875,-7.78125 13.4375,-22.78125 11.125,-6.75 8.875,0.59375 -22.21875,33.40625 12.15625,10.625 -23.875,8.28125 -12.28125,26.8125 26.21875,1.0625 -18.40625,19.46875 -11.6875,5.5625 -31.1875,1.65625 -7.8125,12.875 62.375,8.84375 -26.21875,7.21875 -4.375,5.65625 12.75,19.96875 15.59375,1.15625 12.875,9.46875 39.46875,-31.1875 26.8125,-26.1875 -16.78125,27.84375 -27.875,53.96875 -13.34375,32.34375 7.8125,26.6875 -17.25,35.09375 -12.78125,21.71875 8.875,8.375 9.4375,-2.25 -13.9375,20.5625 10.625,15.59375 -18.40625,46.74995 -0.5,32.3438 -13.34375,13.375 -3.40625,22.1875 31.1875,-2.7187 7.78125,-8.9688 17.25,-90.09375 21.75,-12.875 L 423,920.8125 l -4.96875,-15 2.8125,-14.5 6.0625,1.65625 14.5,-15.59375 -4.96875,18.40625 -4.46875,18.3125 3.90625,14.53125 13.9375,12.28125 23.875,26.6875 5.0625,-16.65625 8.375,-25.15625 3.3125,-17.21875 11.6875,-6.15625 13.9375,1.1875 16.09375,10.03125 -13.34375,0.46875 -13.375,-2.71875 -7.78125,7.78125 -3.90625,20.09375 5.5625,21.125 -10.03125,11.6875 26.78125,24.46875 6.625,7.18755 0.59375,30.6874 -13.34375,10.5313 -5.5625,10.0313 -6.71875,11.6874 -10.03125,28.4688 -17.84375,17.7188 -6.03125,19 3.3125,35.5624 -12.28125,-25.0312 -8.875,2.8125 -1.1875,13.9375 3.4375,18.9062 19.96875,23.375 5.5625,25.625 9.625,5.4376 2.65625,1 -11.65625,-45.4063 16.96875,-9.4687 20.5,15.9062 4.78125,3.5938 36.25,26.7187 7.78125,-30.625 -15,-15.0937 8.28125,-4.9688 17.84375,12.75 27.28125,15.5938 16.1875,4.5 19.5,-10.5313 6.625,-15.5937 25.625,1.6562 2.8125,-28.9375 71.25,4.375 5.0625,-15.5625 21.75,-7.2188 16.0625,-17.25 17.84375,-19.4687 22.3125,-32.3437 15.59375,-1.0938 29.53125,-25.625 -21.25,-45.09375 23.4375,-23.65625 5.5,-6.3125 10.625,-10.0625 -8.84375,-16.78125 -11.21875,-12.15625 -25.53125,-2.84375 -11.6875,-12.25 -16.78125,-6.0625 -7.1875,-13.4375 -21.75,2.8125 -11.6875,18.4375 -13.9375,5.53125 -16.65625,0.5 -14.53125,-7.21875 -18.375,0.46875 -34.5625,-5.65625 -32.78125,-18.15625 6.375,-5.75 27.125,11.3125 34.375,5.625 22.5625,-11.6875 5.65625,-14 27.90625,-19.75 15.96875,8.65625 31.25,-22.65625 -39.71875,-20.4375 8.25,-7.0625 1.96875,-12.0625 -12.84375,-2.5625 -37.375,15.65625 12.875,-16.40625 38.4375,-8.5625 8.5,3.65625 L 816.5625,766.75 827.78125,751.03125 837,722.5625 l 21.34375,-23.34375 13.03125,-34 8.90625,-26.625 3.3125,-23.96875 4.46875,-13.9375 16.1875,-28.34375 19.5,-20.65625 -2.84375,-12.1875 -6.125,-26.78125 L 900.84375,495 l -29.53125,2.125 -35.09375,2.84375 -23.375,-4.5 -30.03125,-5.53125 -15,5.53125 L 752.21875,495 l -22.90625,-9.5625 -19.5,0.59375 -10.53125,5.0625 -13.9375,6.625 -21.125,2.8125 -11.71875,10.53125 -12.84375,5.5625 -9.46875,-6.0625 -10.03125,13.84375 -13.9375,13.9375 -6.625,-1.0625 14.4375,-21.15625 13.90625,-25.625 32.84375,-42.28125 -14.40625,1.65625 -23.40625,6.625 -11.6875,1.1875 21.15625,-20.09375 0.59375,-16.15625 18.3125,-7.8125 2.8125,-12.15625 27.875,-21.71875 16.6875,-11.71875 10.03125,-13.90625 10.53125,-9.46875 21.25,-11.1875 13.34375,-12.1875 4.375,-17.8125 -13.84375,-4.5 L 760.5,259.40625 712.0625,253.875 z m -364.625,22.875 -41.71875,25.96875 -33.5,20.46875 4.34375,26.78125 -21.65625,-9.46875 -11.03125,-4.3125 -12.1875,15.34375 -0.40625,16.9375 17.71875,14.5625 -28.34375,4.3125 26.375,20.09375 14.96875,10.21875 -11.8125,5.125 -9.0625,5.5 -18.90625,5.90625 17.71875,21.65625 31.5,-17.71875 0.40625,-10.625 11.40625,-1.5625 1.59375,-7.875 18.90625,-1.96875 17.3125,-18.90625 2.375,-25.59375 7.0625,-26.375 10.25,-15.34375 12.21875,-14.5625 -5.53125,-38.5625 z m -134.65625,191.3125 -38.21875,1.15625 -13.78125,15.75 23.25,15.375 1.1875,12.59375 -5.125,3.53125 -2.375,11.40625 5.09375,5.4375 2.0625,-0.8125 -9.125,8.78125 0,6.28125 3.9375,11.03125 -12.1875,17.3125 6.6875,32.28125 20.875,6.3125 -0.8125,-34.65625 9.46875,-12.59375 -0.78125,-13 -6.71875,-9.03125 -5.8125,-7.3125 1.875,2.1875 3.9375,-3.15625 24.4375,-37 9.0625,-16.53125 -16.9375,-15.34375 z m -29.96875,65.25 -1.15625,0.46875 1.59375,0 -0.4375,-0.46875 z m 184.3125,-25.90625 -14.15625,23.25 -0.40625,33.0625 3.5625,3.9375 7.46875,-6.71875 -2.75,-9.03125 -1.59375,-12.21875 6.3125,-7.0625 2.75,-10.65625 -1.1875,-14.5625 z m -198.0625,118.90625 -11.40625,1.15625 -13.8125,19.3125 12.21875,7.46875 17.71875,-14.96875 -4.71875,-12.96875 z m 142.5625,5.5 -16.5625,10.21875 L 312,663.6875 325.78125,646.78125 319.875,631.8125 l -8.25,0 z M 293.90625,711.71875 267.5,732.1875 l -16.53125,15.34375 12.59375,-4.71875 26,-10.21875 4.34375,-20.875 z M 330.5,729.8125 l -18.875,13 -6.71875,14.5625 27.5625,12.59375 -11.8125,27.5625 11.8125,7.875 -38.5625,-1.96875 12.96875,23.625 53.5625,-17.3125 12.59375,6.28125 19.3125,-9.0625 5.125,-23.59375 -4.75,-6.3125 -16.125,-9.0625 -16.9375,-0.78125 -9.4375,-13 -9.84375,-18.875 -9.875,-5.53125 z m -106.6875,22.84375 -3.9375,3.53125 2.75,19.3125 -1.1875,1.96875 33.0625,-22.0625 -30.6875,-2.75 z m 161.84375,106.6875 -13.78125,10.625 -23.25,16.125 -4.71875,13.40625 11.8125,1.5625 -11.40625,4.71875 -7.09375,3.5625 L 326.1875,918 l 5.5,24 10.65625,5.125 25.1875,-42.53125 L 382.5,878.625 l 7.875,-9.84375 -4.71875,-9.4375 z m -61.4375,49.59375 -32.6875,12.21875 -15.75,5.09375 -7.875,40.15625 6.3125,-4.71875 17.3125,-18.5 8.28125,-2.375 7.0625,3.9375 -7.0625,9.0625 -3.9375,7.46875 5.90625,13.78125 -5.90625,5.125 -2.375,7.875 6.6875,5.125 22.84375,-16.15625 14.1875,-8.65625 -9.0625,-40.9375 -3.9375,-18.5 z m 116.9375,57.46875 -13.78125,10.625 -5.90625,13.78125 7.875,10.625 -4.71875,15.375 16.15625,19.6563 18.5,2.7812 5.125,-30.3125 -8.65625,-9.84375 -1.59375,-20.875 -13,-11.8125 z"
         transform="matrix(0.69138004,0,0,0.69138004,-95.155614,-268.57683)"
         id="path4039"
         inkscape:connector-curvature="0" />
    </g>
    <g
       id="Wales"
       class="Wales"
       style="fill:#999999;fill-opacity:1">
      <path
         id=""
         transform="matrix(0.69138004,0,0,0.69138004,-95.155614,-268.57683)"
         d="m 552.46875,1511.2188 -39.4375,3.5 -2.625,17.9687 -17.09375,3.0625 13.15625,18.4062 8.75,0.875 14.90625,19.2813 12.71875,8.7187 11.15625,-8.625 0.0625,0 19.65625,-17.0937 0.9375,1.125 13.3125,-18.3125 -23.65625,0.4375 -6.15625,-12.2813 -5.6875,-17.0624 z m 145.0625,19.2812 -42.96875,14.875 -19.71875,-2.625 -15.78125,-8.3125 1.34375,12.6875 -23.25,8.3438 -22.625,3.8437 -19.21875,16.625 -0.0312,0 0,0.062 -11.125,8.5312 -0.4375,22.2188 -29.8125,22.3438 -7,1.3124 -31.125,34.625 3.9375,2.1876 21.90625,-7.0313 10.96875,9.2187 6.5625,-4.375 -0.4375,-8.7812 17.96875,-14.0312 46.46875,-5.25 -11.40625,7.9062 2.1875,12.6875 -2.1875,9.6563 13.59375,18.4062 -2.1875,8.3125 -13.59375,17.9687 11.8125,19.7188 1.34375,13.1562 -14.46875,40.3126 -13.15625,15.7812 -21.03125,9.625 -26.71875,19.2812 -21.5,0.4376 -2.625,4.4062 -9.1875,-2.6562 -5.25,10.9687 -8.78125,12.2813 -12.28125,-2.1876 -10.0625,5.6876 -6.125,-7.0313 -11.40625,2.2187 -1.75,13.5626 -33.3125,14.0312 -0.4375,7 3.5,5.2812 16.65625,-2.1874 10.96875,11.375 0,12.2812 -12.28125,1.75 -8.75,7 12.25,13.1562 2.1875,-7.875 21.5,3.5 -14.03125,7.4376 7.875,10.9687 14.03125,9.625 14.90625,-13.5937 10.9375,2.6562 10.53125,-4.4062 5.6875,-14.875 4.375,-3.9688 32.875,0.4375 10.96875,-7 -1.3125,11.8437 9.1875,14 17.53125,-2.625 3.9375,5.2813 13.15625,1.3125 -15.34375,7.4375 -12.25,-1.75 -6.59375,6.125 2.1875,9.6563 14.46875,8.3124 9.65625,-4.8124 21.46875,0.4374 4.8125,-10.5312 3.0625,-3.0625 17.96875,-3.0625 16.65625,39 11.40625,0.875 15.75,17.5312 33.75,2.625 24.09375,-3.0624 0.4375,-11.8438 28.0625,-23.2188 15.78125,4.375 23.21875,-11.375 11.71875,-13.0624 c -0.77991,-1.1925 -1.61447,-2.3754 -1.96875,-3.75 -0.90277,-10.0902 -0.97781,-20.1977 -1.28125,-30.3126 -0.0639,-5.7541 0.32244,-11.5836 -0.84375,-17.25 -0.23371,-2.1704 -2.45745,-3.1497 -3.9375,-4.375 -7.90536,-5.4031 -15.56204,-11.1405 -23.46875,-16.5312 -5.24554,-4.2437 -10.39074,3.4839 -16,2.2188 -1.2342,-1.1793 -2.14899,-2.6224 -2.9375,-4.0938 -6.39492,-12.5521 -12.94079,-25.0319 -19.125,-37.6875 -2.03518,-3.216 -0.68706,-6.958 0.40625,-10.2187 6.57534,-18.651 13.13909,-37.2886 19.625,-55.9688 -10.95975,-6.3358 -22.5697,-11.4971 -33.65625,-17.5938 -1.09226,-0.4329 -1.9779,-1.3867 -2.40625,-2.4374 l -0.125,-0.063 0.0625,-0.062 c -0.48447,-1.3186 -0.24772,-2.8 1.125,-3.75 8.5363,-6.7011 17.58952,-12.7386 26.0625,-19.5313 -3.35932,-2.1163 -7.2587,-3.2137 -10.5,-5.5 -2.07789,-1.606 -0.81319,-4.1725 -0.125,-6.125 5.53149,-12.8456 11.56173,-25.4934 16.84375,-38.4375 1.16743,-2.2891 -1.03493,-4.0361 -2.65625,-5.2188 -5.50782,-3.9524 -11.11116,-7.7823 -16.625,-11.7187 -1.98915,-1.457 -4.19806,-3.1259 -4.53125,-5.75 2.53409,-7.6122 7.26286,-14.2245 10.4375,-21.5625 1.34198,-3.4745 4.30398,-6.1949 8.125,-6.5 10.55421,-1.5692 20.96231,-4.3179 31.65625,-4.7812 3.26926,4.0081 5.35359,8.7613 8.03125,13.1562 2.31446,-0.8632 4.68639,-1.6504 6.8125,-2.9375 1.66441,-3.9681 0.1144,-8.3044 -0.46875,-12.3437 -4.48733,-1.135 -9.14164,-1.7292 -13.46875,-3.4063 -3.19665,-1.2008 -3.32472,-5.1477 -4.125,-7.9375 -1.70903,-6.8632 -2.11246,-14.076 -4.6875,-20.6875 -3.6262,-3.8106 -9.31542,-5.0471 -13.125,-8.7187 -1.19188,-1.4856 -1.23334,-4.1014 0.40625,-5.3126 2.65512,-2.6605 5.73839,-4.849 8.375,-7.5312 -8.47689,-6.5246 -17.46733,-12.3188 -26.03125,-18.7188 -2.20543,-1.5766 -3.43069,-3.8883 -4.375,-6.3437 l -2.8125,-1.5937 -22.78125,-20.5938 z"
         style="fill:#999999;fill-opacity:1;fill-rule:evenodd;stroke:none"
         inkscape:connector-curvature="0" />
    </g>
    <g
       id="London"
       class="London"
       style="fill:#999999;fill-opacity:1">
      <path
         style="fill:#999999;fill-opacity:1;fill-rule:nonzero;stroke:none"
         class="London"
         id="path4052"
         d="m 710.25743,1074.1186 c 4.10132,-2.5384 9.10018,-1.5158 13.65709,-1.5143 0.58547,2.034 0.29711,4.6305 2.10062,6.103 2.57866,2.2246 5.16518,4.4674 7.94763,6.4484 1.25618,1.1237 2.95364,0.407 4.40397,0.1653 5.03085,-1.2202 9.95323,-2.9985 15.14367,-3.472 1.43186,3.5649 2.88755,7.1274 4.08406,10.7879 -2.32787,3.362 -5.46673,6.086 -7.67299,9.5318 -2.45288,7.6948 -5.51912,15.1966 -8.20519,22.8219 -1.11948,3.6772 -4.18068,6.5817 -7.65441,8.0423 -3.46145,-0.5239 -6.27751,-3.034 -9.55262,-4.1845 -2.59636,2.2008 -4.97887,4.6337 -7.44494,6.9762 -1.65275,-2.0724 -3.13632,-4.2667 -4.5982,-6.4629 -2.0285,-0.255 -4.05901,-0.4313 -6.07777,-0.6691 -0.80726,-2.2944 -1.48038,-4.6496 -2.60426,-6.8036 -3.06265,-0.1749 -4.40877,3.5645 -6.52074,5.3225 -0.10937,-2.308 1.14868,-5.3954 -1.28417,-6.8785 -5.9857,-4.2578 -12.47531,-7.7892 -18.39556,-12.13 -0.42622,-4.1572 2.7215,-7.8124 2.96659,-11.9269 -0.72037,-3.0714 -2.12364,-5.9201 -3.03664,-8.926 4.77657,-1.0178 9.79381,-0.7435 14.46832,-2.2109 6.29568,-3.3091 12.11316,-7.47 18.27554,-11.0206 z"
         inkscape:connector-curvature="0" />
    </g>
    <g
       id="YorkshireAndTheHumber"
       class="YorkshireAndTheHumber"
       style="fill:#999999;fill-opacity:1">
      <path
         style="fill:#999999;fill-opacity:1;fill-rule:nonzero;stroke:none"
         d="M 1010.5625 1230.1562 C 997.18242 1239.456 983.98955 1249.0107 970.65625 1258.375 C 971.02317 1264.4466 969.6306 1270.3585 968.6875 1276.3125 C 962.4145 1275.0769 955.12406 1273.8801 951.0625 1268.4062 C 948.44556 1265.514 946.64346 1261.8246 943.40625 1259.5625 C 937.11087 1256.7338 929.11696 1255.3789 923.09375 1259.5 C 921.59132 1261.77 920.83447 1264.4289 919.75 1266.9062 C 916.60653 1266.5521 913.45335 1265.6632 910.28125 1265.9688 C 905.09066 1268.7219 901.01242 1273.1799 895.75 1275.8125 C 891.53336 1275.7175 888.82049 1270.0456 884.28125 1271.25 C 875.44627 1272.9522 866.68209 1274.9666 857.90625 1276.9375 C 853.86413 1277.4534 852.45821 1281.6891 850.53125 1284.6562 C 848.41813 1288.6615 845.51135 1292.3448 844.28125 1296.75 C 843.68826 1304.8993 845.51073 1313.0132 845.59375 1321.1562 C 845.5923 1322.9042 845.25977 1325.0531 843.21875 1325.5 C 837.50563 1327.6835 831.23788 1328.223 825.6875 1330.8438 C 820.76345 1337.4517 817.45437 1345.1085 813.25 1352.1875 C 816.28801 1358.7252 819.87893 1365.027 823.96875 1370.9688 C 828.91477 1371.0736 833.85305 1371.0127 838.78125 1371.5938 C 839.49971 1375.2004 840.05347 1378.8561 840.78125 1382.4688 C 847.1092 1384.4772 855.12427 1383.7818 859.65625 1389.4062 C 867.72837 1398.4923 875.50705 1407.8591 883.96875 1416.5938 C 883.97885 1416.5831 883.9899 1416.5731 884 1416.5625 L 886.375 1420.5938 C 882.2574 1425.2012 876.41109 1428.5169 874.375 1434.625 C 872.69037 1439.4584 870.74646 1444.2053 869.21875 1449.0938 C 867.98785 1452.8221 870.3184 1456.3946 871.53125 1459.8125 C 875.68798 1460.5495 881.45293 1458.7234 883.875 1463.25 C 889.55808 1471.3316 895.15455 1479.4552 900.625 1487.6875 C 903.8478 1492.9572 909.96449 1495.1211 915.0625 1498.0938 L 915.25 1498.2188 L 918.03125 1501.4375 C 918.02263 1501.4414 918.00862 1501.4336 918 1501.4375 C 926.86635 1517.1686 936.84783 1532.2795 946.5625 1547.5 C 959.69282 1546.1529 972.69337 1543.681 985.84375 1542.625 C 991.74002 1543.8154 996.94688 1547.2248 1002.5625 1549.3125 C 1009.1457 1541.2967 1013.5999 1531.8901 1019.4375 1523.375 C 1022.0735 1518.7858 1028.8331 1520.6022 1031.6562 1516.3125 C 1035.4189 1511.0754 1039.6785 1505.8784 1041.375 1499.5312 C 1043.7616 1490.6525 1046.0806 1481.7608 1048.3125 1472.8438 L 1049.2812 1472.5 L 1052.0625 1471.5312 L 1054.625 1470.5625 L 1055.875 1469.5 C 1060.1862 1466.5797 1064.3553 1463.4778 1068.4688 1460.2812 C 1071.5466 1457.9614 1074.6102 1455.2311 1078.5625 1454.5938 C 1092.1133 1451.5316 1105.9696 1449.6851 1119.1562 1445.1562 C 1124.5613 1443.5642 1129.8041 1441.3126 1135.3438 1440.1875 C 1138.3233 1439.5288 1140.8565 1441.7692 1142.9062 1443.625 C 1149.6593 1450.1755 1156.074 1457.0902 1162.9062 1463.5625 C 1165.1192 1465.7844 1168.3272 1466.204 1171.3125 1466.5 C 1177.8673 1467.1404 1184.4138 1468.0395 1191 1468.4062 C 1188.309 1460.9286 1183.8315 1454.3001 1180.25 1447.25 C 1167.0577 1422.3307 1153.7443 1397.4812 1140.4375 1372.625 C 1139.5033 1370.6382 1137.8802 1367.7204 1139.9375 1365.9062 C 1145.0215 1361.5943 1151.199 1358.8081 1156.375 1354.5938 C 1152.8908 1352.4106 1149.4291 1350.068 1145.5938 1348.5625 L 1145.625 1348.4688 L 1140.375 1346.7812 L 1138.7812 1345.5938 C 1125.0161 1324.2114 1111.326 1302.7718 1097.7812 1281.25 C 1095.1185 1277.2514 1093.1647 1272.3981 1088.8125 1269.9062 C 1062.9155 1256.288 1036.1843 1244.31 1010.5625 1230.1562 z "
         transform="matrix(0.69138004,0,0,0.69138004,-95.155614,-268.57683)"
         id="path36" />
    </g>
    <g
       id="NorthWest"
       class="NorthWest"
       style="fill:#999999;fill-opacity:1">
      <path
         style="fill:#999999;fill-opacity:1;fill-rule:nonzero;stroke:none"
         d="m 799.90625,1106.8125 -12.9375,14.125 -16.03125,17.25 -0.28125,0.25 -0.34375,0.125 -19.125,6.8125 c -0.61468,0.5831 -1.22897,1.167 -1.84375,1.75 -1.78221,4.8017 -3.56034,9.6049 -5.34375,14.4062 l -1.125,-0.094 -17.375,-1.5 0.0312,-0.3125 c -6.11383,3.0361 -12.22496,6.0677 -18.3125,9.1562 -4.36936,1.9057 -6.82422,5.154 -8.5,9.0313 -3.35804,8.488 -5.35544,17.7938 -11.46875,24.875 -5.37506,7.9536 -12.53547,15.1463 -14.90625,24.7187 -2.98776,9.9828 -6.19024,19.9178 -9.15625,29.9063 -0.98502,2.3184 0.68704,4.4343 1.59375,6.4687 9.59164,17.4505 19.05746,34.9865 28.59375,52.4688 3.52955,6.2316 6.52936,12.7774 10.5625,18.7188 4.812,-2.2327 9.17983,-5.3826 14.1875,-7.1876 2.11428,0.2576 3.25424,1.4446 3.4375,3.5626 -1.05162,6.5358 -4.75437,12.4149 -5.40625,19.0312 1.62034,3.0241 3.96298,8.2018 7.84375,7.8438 6.59893,-7.6923 11.55856,-16.6392 17.53125,-24.8126 1.46504,0.2297 2.91312,0.5401 4.34375,0.9688 3.01112,3.5533 4.63173,8.0642 7.625,11.6562 3.94391,-3.0164 7.55182,-7.0821 12.4375,-8.4687 l 3.375,3.7813 c 2.05378,4.8985 4.81114,9.4448 7.125,14.2187 0.80433,1.6608 1.52443,4.2432 -0.4375,5.4375 -4.54365,3.2573 -9.66645,5.6019 -14.4375,8.5 1.26201,6.6397 5.27646,12.3035 7.28125,18.6875 1.12355,2.769 -1.48153,4.9336 -3.65625,6.0625 -6.70689,3.5385 -13.6119,6.7335 -20.25,10.4062 -0.53236,9.8913 -1.18982,19.8155 -0.75,29.7188 1.53153,6.421 5.99304,11.5973 9.1875,17.2812 l 0.0625,0.9063 L 753,1456 l -0.6875,2.7812 -0.34375,1.0313 c 0.003,0.01 -0.003,0.021 0,0.031 -6.20127,10.1435 -11.62051,20.7643 -16.875,31.4062 1.71877,8.8339 6.8041,16.7477 8.375,25.625 -0.17195,0.5482 -0.51555,1.6393 -0.6875,2.1875 -6.52139,4.2525 -14.00077,6.7994 -20.96875,10.2187 1.3474,7.4253 4.36549,14.3948 7.21875,21.3438 l 0,0.031 2.875,3.9063 0.15625,0 c 0.006,-0.01 0.0256,0.01 0.0312,0 8.56362,7.436 18.53395,13.0598 27.3125,20.2187 2.01723,1.1095 2.17793,4.0591 0.46875,5.5313 -2.57175,2.7095 -5.61608,4.8969 -8.375,7.4063 4.3629,3.7348 11.84489,5.1052 12.875,11.625 1.6182,7.738 3.02787,15.5216 5,23.1874 4.32505,1.2095 8.75028,2.1079 13.03125,3.5 6.39198,2.8317 12.79102,-1.5228 19.125,-2.5 2.61179,4.0762 4.77459,8.3933 6.6875,12.8438 7.99893,-3.7003 15.9853,-7.6462 23.4375,-12.3438 2.56526,-3.9042 1.08711,-9.3553 3.09375,-13.5937 5.53921,-4.7153 12.93389,-6.5592 18.71875,-10.9375 6.1135,-5.5006 10.97372,-12.2408 16.84375,-17.9688 6.31693,-4.1729 13.55593,-6.7214 20.34375,-10.0312 -1.04248,-10.8803 -4.44816,-21.3871 -7.21875,-31.9375 l 0,-3.3437 0.71875,-3.0626 c 0.97516,-1.317 1.54022,-2.9402 2.3125,-4.375 -1.13787,-1.8533 -2.27958,-3.6732 -3.375,-5.5312 5.71295,-9.4338 12.11094,-18.4403 17.71875,-27.9375 -6.04915,-8.6723 -11.95198,-17.4125 -17.9375,-26.125 -1.65596,-2.1879 -3.35817,-5.1596 -6.5,-5.0625 -0.48208,-0.093 -0.92052,-0.1053 -1.34375,-0.094 l -0.75,-0.062 -1.71875,-0.1876 -1.65625,-0.3437 -1.71875,-0.5625 -0.9375,-0.5938 -0.8125,-0.8437 -0.53125,-1.25 -0.40625,-1.25 -0.0312,-0.031 c -0.73342,-2.5695 -1.88559,-5.1571 -2.1875,-7.7187 1.16419,-6.4094 4.3298,-12.2572 6.21875,-18.4687 1.49323,-5.4038 6.23393,-8.7451 9.8125,-12.7188 -5.95808,-8.0445 -13.10345,-15.1298 -19.5,-22.8125 -2.16675,-2.4546 -4.16988,-5.1571 -6.90625,-7 -5.21835,-2.2751 -11.13605,-2.2114 -16.40625,-4.3125 -2.26746,-2.842 -1.02229,-7.2662 -2.90625,-10.4375 -4.36575,-0.7219 -8.78973,-0.4344 -13.1875,-0.5937 -4.67111,-7.2392 -10.02829,-14.5066 -12.65625,-22.7188 2.99089,-7.0684 7.52447,-13.3589 10.71875,-20.3438 l 1.125,-1.9062 1.65625,-2.4375 1.28125,-1.125 c 5.9501,-1.4627 11.92169,-2.9009 17.78125,-4.6875 -0.32168,-8.346 -1.61398,-16.6469 -1.53125,-25 0.80011,-4.5712 3.94055,-8.2677 6.03125,-12.3125 2.22494,-3.4303 3.67746,-7.5683 6.9375,-10.1875 3.39424,-1.5119 7.13766,-1.9847 10.75,-2.75 -0.30059,-4.2932 0.40645,-8.9885 -1.78125,-12.875 -5.86209,-7.9902 -14.01144,-14.1143 -19.4375,-22.4375 -0.7204,-3.2031 2.45528,-6.0834 3.5625,-9.0313 -2.91537,-3.4557 -6.99101,-6.143 -8.90625,-10.2812 1.29146,-6.9476 5.96112,-12.7638 8.8125,-19.1562 -3.95275,-5.6771 -7.67289,-11.5263 -12.03125,-16.9063 -6.55456,4.0004 -12.12757,9.4963 -19.03125,12.9375 -3.80166,-5.4088 -6.76673,-11.347 -10,-17.0938 -0.94225,-1.9223 -2.19636,-3.8109 -2.3125,-6 1.51935,-3.931 4.66834,-6.946 6.375,-10.7812 -0.0181,-4.2971 -3.72235,-8.7127 -1.15625,-12.8125 3.43497,-5.95 7.50787,-11.5237 10.90625,-17.5 -6.88003,-8.1958 -11.47105,-14.6427 -18.59375,-22.625 z"
         transform="matrix(0.69138004,0,0,0.69138004,-95.155614,-268.57683)"
         id="path24"
         inkscape:connector-curvature="0"
         sodipodi:nodetypes="cccccccccccccccccccccccccccccccccccccccccccccccccccccccccccccccccccccccccccccccccccccccccccccccccccccccccccccccc" />
    </g>
    <g
       id="SouthWest"
       class="SouthWest"
       style="fill:#999999;fill-opacity:1">
      <path
         style="fill:#999999;fill-opacity:1;fill-rule:evenodd;stroke:none"
         d="M 924.96875 1842.9375 C 920.21083 1845.1147 915.4535 1847.3256 910.96875 1850.0312 C 913.93998 1854.1559 917.47574 1857.8576 920.21875 1862.1562 C 920.0024 1862.8159 919.59138 1864.1529 919.375 1864.8125 C 903.39999 1866.6856 887.13185 1865.723 871.125 1867.5625 C 863.60222 1869.6897 856.70869 1873.5893 849.25 1875.9375 C 846.14277 1873.1975 843.47488 1869.9136 840.03125 1867.5938 C 833.96906 1865.9294 827.61036 1866.5544 821.40625 1866.5312 C 821.53006 1874.8223 823.10828 1883.1086 822.40625 1891.4062 C 820.82372 1893.4684 818.42518 1894.6447 816.28125 1896.0312 C 808.72474 1900.4047 801.1841 1904.8062 793.78125 1909.4375 C 794.39726 1922.9665 794.36698 1936.5466 795.28125 1950.0625 C 801.10676 1946.2004 804.37629 1939.5837 810.4375 1936 C 811.29999 1936.6186 813.04377 1937.8501 813.90625 1938.4688 C 812.66235 1944.827 807.29856 1949.1062 804.21875 1954.5625 C 799.71392 1962.0464 794.20983 1968.7973 788.53125 1975.4062 L 787.71875 1976 L 781.5625 1982.4375 L 778.90625 1985.4062 L 777.5625 1986.8438 L 777.5625 1986.9375 C 765.58703 1999.9465 753.63062 2012.9937 741.71875 2026.0625 C 740.54419 2027.458 738.87598 2028.8569 739.125 2030.9062 C 739.22813 2038.5326 741.89995 2046.0036 741.28125 2053.6562 C 740.52719 2056.7527 736.83706 2057.0445 734.25 2057.5312 C 717.59062 2059.6764 700.95838 2062.0404 684.3125 2064.2812 C 680.39113 2064.645 676.17156 2065.4101 672.46875 2063.6562 C 666.09443 2060.6391 660.04601 2056.9437 653.625 2054.0312 C 651.5624 2052.7568 649.19355 2053.8153 647.03125 2054.125 C 642.09507 2055.2907 637.21687 2053.4175 632.375 2052.625 L 628.8125 2051.5625 L 625.8125 2051.0312 L 625.78125 2051.0625 C 619.78531 2049.3539 613.55216 2051.0066 607.5625 2051.9062 C 590.74263 2054.8394 573.83924 2057.3237 557.03125 2060.3125 C 552.4939 2060.5713 551.64689 2065.9493 550.875 2069.5 C 551.75913 2075.4141 556.51884 2079.9913 557.4375 2085.9375 C 555.57914 2091.048 550.78807 2094.2507 547.25 2098.1562 C 543.70589 2101.3007 540.94041 2105.6752 536.4375 2107.5 C 527.04433 2106.9032 518.27613 2102.7976 508.96875 2101.5938 C 507.41995 2106.0546 506.15572 2110.5934 505.15625 2115.2188 L 505 2115.3438 L 503.6875 2120.1562 L 503.6875 2120.1875 C 503.12186 2129.8571 503.06791 2139.5602 503 2149.25 C 503.05022 2151.9317 502.37391 2154.8365 500.09375 2156.5312 C 490.15691 2164.2593 479.49289 2171.0601 469.625 2178.875 C 466.62176 2183.7425 469.99668 2191.2463 465.59375 2195.5625 C 459.75375 2199.1701 453.08728 2201.198 446.90625 2204.1562 C 440.08375 2207.4378 432.52373 2208.2352 425.1875 2209.6875 C 424.19603 2216.7939 425.6821 2224.1485 424.1875 2231.1562 C 417.79275 2239.3357 409.26673 2245.5311 401.9375 2252.8438 C 389.69157 2265.0875 376.80014 2276.6583 364.4375 2288.7812 C 363.17082 2289.9141 361.69764 2290.8602 360.0625 2291.4062 C 356.15828 2290.3244 353.11473 2287.4312 349.78125 2285.2812 C 342.19824 2287.9634 334.96791 2291.5419 327.53125 2294.5938 C 324.88517 2295.8709 321.5785 2296.9076 320.40625 2299.9062 C 318.67839 2304.337 317.21658 2308.9212 316 2313.5312 C 314.64066 2317.3325 318.33176 2320.2166 320.84375 2322.4375 C 326.12818 2322.1542 331.39899 2320.6029 336.25 2318.5312 C 341.32517 2314.3479 343.42872 2307.4742 348.71875 2303.5312 C 353.44956 2303.6452 357.56848 2306.3839 361.90625 2307.9688 C 367.54918 2310.6768 374.7505 2311.9291 378.0625 2317.8438 C 383.0195 2326.2585 387.4714 2334.9794 392.6875 2343.25 C 399.0982 2338.9583 404.82419 2333.7464 410.78125 2328.875 C 406.95609 2324.0733 401.55478 2320.9413 397.34375 2316.5312 C 397.84472 2315.7564 398.84277 2314.1811 399.34375 2313.4062 C 405.86543 2309.8607 413.49319 2308.9796 420.1875 2305.8125 C 425.4772 2301.7697 425.97524 2293.6689 431.78125 2290.0938 C 438.4283 2287.6533 446.07863 2288.6774 452.40625 2285.3438 C 457.51361 2277.147 459.46827 2267.2079 465.125 2259.375 C 474.12172 2257.252 483.53656 2260.6631 492.6875 2260.8438 C 500.22302 2262.0253 504.18048 2253.6079 510.875 2251.9688 C 515.97649 2251.4718 521.09961 2251.8287 526.21875 2251.7188 C 529.56835 2251.8381 533.45094 2251.2333 536.15625 2253.7188 C 540.81584 2257.821 544.91984 2262.5134 549.59375 2266.625 C 551.17257 2265.2117 552.77376 2263.8098 554.125 2262.1875 L 555.15625 2261.5312 L 557.71875 2256.8438 L 559.40625 2256.8125 C 560.78569 2257.4171 562.14558 2258.044 563.4375 2258.8438 C 564.67698 2260.8775 565.23061 2263.2312 566.0625 2265.4688 C 574.20767 2267.0699 582.48181 2268.1036 590.625 2269.7188 C 599.09267 2271.2335 599.12401 2283.6021 607.65625 2284.9375 C 616.13037 2286.8372 624.58967 2288.8039 633.1875 2290.0938 C 633.09281 2285.1682 632.32608 2280.3177 631.875 2275.4375 C 631.67363 2273.7358 632.3082 2271.7016 633.90625 2270.9062 C 638.93804 2268.254 645.01201 2268.1546 649.84375 2265.0938 C 651.98474 2261.5155 653.02292 2257.3997 654.375 2253.5 C 651.59902 2250.097 647.55155 2247.3887 646.0625 2243.1562 C 647.25435 2238.8478 652.2446 2237.0881 655.28125 2234.1562 C 654.64287 2231.018 652.8266 2227.7123 654.3125 2224.5625 C 656.68112 2218.5502 659.78721 2212.8569 662.21875 2206.875 C 663.46576 2204.279 664.34553 2201.1515 666.90625 2199.5312 C 671.50534 2197.7036 676.64879 2198.754 681.34375 2197.375 C 686.51701 2193.5259 689.0627 2186.2536 695.71875 2184.5312 C 701.85532 2182.7199 708.20204 2181.644 714.40625 2180.0938 C 724.49355 2178.1126 733.66505 2173.3488 743.125 2169.5312 C 743.12414 2169.5208 743.12586 2169.5104 743.125 2169.5 L 743.5625 2169.375 L 746.1875 2168.9688 L 748.9375 2169.0312 L 749.5625 2169.1562 C 749.5871 2169.1726 749.59981 2169.2029 749.625 2169.2188 C 756.85325 2171.4858 764.99822 2170.2067 771.78125 2173.9688 C 787.57358 2184.0039 802.74261 2195.0267 818.8125 2204.625 C 820.10976 2200.7687 821.0052 2196.7467 822.8125 2193.0938 C 824.9145 2191.5643 827.60503 2191.9377 830.03125 2192.125 C 851.64443 2194.5669 873.14351 2198.1581 894.78125 2200.3125 C 896.50733 2192.9312 894.8937 2184.6393 898.53125 2177.8438 C 909.94256 2173.921 922.76969 2175.7388 933.96875 2170.9062 C 932.50873 2168.8508 931.16749 2166.6238 929.0625 2165.1875 C 926.93558 2165.392 924.86751 2165.9506 922.78125 2166.3438 C 920.65167 2159.2229 919.41718 2151.8743 917.71875 2144.6562 C 915.37531 2144.3284 913.04404 2144.0128 910.71875 2143.6875 C 911.15227 2138.7837 912.3367 2134.0092 913.5 2129.25 C 911.19962 2128.9548 908.90485 2128.6319 906.625 2128.3125 C 903.01632 2122.689 899.65586 2116.9183 895.84375 2111.4375 C 895.83642 2111.4422 895.81983 2111.4328 895.8125 2111.4375 L 895.34375 2110.1562 L 895.09375 2108.4688 L 895.34375 2107.1875 L 896.09375 2106.375 L 896.28125 2106.25 L 896.3125 2106.25 C 899.42544 2105.3404 902.90777 2105.452 906.0625 2104.8125 C 910.0159 2104.4603 914.33716 2102.7317 918.09375 2104.8438 C 926.3104 2108.9959 934.03453 2114.0638 942.34375 2118.0625 C 946.92867 2115.1329 944.69701 2109.7447 944.15625 2105.4375 C 941.68146 2088.5947 939.15878 2071.7757 936.46875 2054.9688 C 943.8727 2051.056 952.15383 2049.1914 959.59375 2045.375 C 960.85806 2042.3752 960.40628 2038.998 960.53125 2035.8438 C 961.01472 2024.9502 955.13411 2015.3322 952.71875 2005 C 954.57803 2002.8199 956.50109 2000.6637 958.40625 1998.5312 C 949.72859 1981.8671 942.55076 1964.5045 934.59375 1947.5 L 933.5625 1944.625 L 933 1941.5938 L 932.78125 1939.125 C 935.33336 1915.9981 938.58069 1892.9253 940.625 1869.75 C 940.36002 1865.4282 942.03766 1860.0281 938.3125 1856.7812 C 933.91035 1852.1197 929.53097 1847.4349 924.96875 1842.9375 z M 211 2334.875 L 207.6875 2338.4688 L 208.4375 2339.1562 L 205.4375 2337.875 L 199.125 2343.2812 L 200.3125 2348.6875 L 204.09375 2344.9375 L 203.9375 2350.0625 L 207.25 2351.25 L 209.34375 2348.4062 L 213.71875 2346.2812 L 210.03125 2340.625 L 211.15625 2341.625 L 215.0625 2340.5938 L 219.40625 2345.0938 L 222.71875 2346.1562 L 226.03125 2343 L 219.28125 2335.9062 L 211 2334.875 z M 214.3125 2347.0625 L 211.4375 2353.5 L 212.0625 2356.0312 L 211.75 2355.625 L 206.78125 2354.7188 L 204.21875 2355.625 L 201.375 2354.875 L 201.0625 2357.4375 L 203.625 2362.8438 L 210.53125 2362.25 L 212.65625 2356.8125 L 212.09375 2356.0625 L 215.5 2357.4375 L 220.625 2352.625 L 220.46875 2348.5625 L 214.3125 2347.0625 z M 196.40625 2358.3125 L 194 2359.8438 L 196.5625 2363.9062 L 201.96875 2363.9062 L 202.4375 2361.1875 L 199.28125 2360.5938 L 196.40625 2358.3125 z M 190.40625 2359.2188 L 188.125 2361.7812 L 189.9375 2364.3438 L 191.28125 2364.6562 L 194 2362.5312 L 190.40625 2359.2188 z "
         transform="matrix(0.69138004,0,0,0.69138004,-95.155614,-268.57683)"
         id="path2662" />
    </g>
    <g
       id="WestMidlands"
       class="WestMidlands"
       style="fill:#999999;fill-opacity:1">
      <path
         style="fill:#999999;fill-opacity:1;fill-rule:nonzero;stroke:none"
         d="M 893.1875 1575.3125 C 888.61981 1576.811 884.4487 1579.2951 880 1581.0938 C 868.21398 1585.2644 863.68287 1598.5003 853.46875 1604.8438 C 848.42511 1607.5568 843.21278 1609.9777 838.25 1612.8438 C 837.76906 1616.0643 837.265 1619.2962 837.1875 1622.5625 L 836.65625 1624.2188 L 835.5 1626.5 L 833.4375 1628.4375 L 832.5 1628.9375 L 832 1629.1875 C 823.43138 1633.2503 815.3747 1638.334 806.625 1642.0312 C 804.04817 1637.7807 801.92656 1633.3108 799.84375 1628.8125 C 795.39213 1629.4778 791.02074 1630.6325 786.78125 1632.125 C 786.76764 1636.898 788.44776 1642.0676 786.5625 1646.5938 C 782.63102 1650.1159 777.41494 1652.2228 772.34375 1653.5312 C 767.62834 1650.1617 766.04871 1644.1563 762.875 1639.5312 C 755.083 1640.5039 747.36929 1641.9187 739.625 1643.1875 C 736.61803 1643.7831 732.7693 1644.0876 731.4375 1647.375 C 728.30997 1653.5411 724.67514 1659.5052 722.3125 1666.0312 C 730.26024 1672.5407 739.18257 1677.7337 747.03125 1684.375 C 745.44153 1691.9487 741.47242 1698.6814 738.5625 1705.7812 C 735.20459 1713.866 731.0783 1721.6431 728.3125 1729.9688 C 732.8216 1732.0646 737.4916 1733.6986 742 1735.8125 C 741.52459 1737.5627 742.06762 1739.9707 740.4375 1741.2188 C 731.94373 1748.1397 722.24703 1753.5711 714.34375 1761.2188 C 725.26734 1766.9974 736.20949 1772.7566 747.375 1778.0625 L 747.75 1778.6875 L 748.40625 1780.7812 L 748.1875 1782.9062 L 747.25 1785.3125 L 747.25 1785.5625 C 747.16623 1785.7871 747.09937 1786.0137 747.03125 1786.25 C 741.29908 1802.8129 735.50948 1819.3631 729.625 1835.875 C 728.64385 1838.8816 727.3281 1841.8466 727.21875 1845.0625 C 728.65031 1849.7265 731.32124 1853.9029 733.5 1858.25 C 738.07418 1866.7045 741.91687 1875.555 746.75 1883.875 C 750.46192 1882.6665 754.01772 1880.7892 757.9375 1880.3438 C 761.19743 1881.3108 763.84935 1883.5789 766.625 1885.4688 C 775.36885 1891.9386 784.42471 1897.9959 793.125 1904.5312 C 801.59279 1899.8221 809.87934 1894.7857 818.15625 1889.75 C 818.71525 1880.6206 816.67333 1871.5458 817.46875 1862.4375 C 822.91591 1862.0142 828.38262 1862.1119 833.84375 1861.9062 L 835.0625 1862.1562 L 837.9375 1862.5938 L 840.96875 1863.5 L 842.6875 1864.4062 C 845.16924 1866.4523 847.48954 1868.7382 849.78125 1871 C 855.4277 1869.295 860.74529 1866.7273 866.21875 1864.5625 C 871.90797 1862.0782 878.23687 1863.0838 884.25 1862.5 C 894.10992 1861.6504 904.03662 1862.104 913.875 1860.9375 C 911.00776 1856.9637 907.45443 1853.4618 905.1875 1849.0938 C 908.96552 1844.4896 915.35279 1843.2049 920.28125 1840.0938 C 920.26929 1840.0857 920.26197 1840.0706 920.25 1840.0625 L 924.78125 1837.5938 L 924.875 1837.625 C 928.20833 1839.9578 931.2777 1842.6055 933.875 1845.875 C 937.34949 1850.1713 942.28212 1853.3838 944.75 1858.4375 C 945.39538 1863.6568 944.86259 1868.9337 944.96875 1874.1875 C 949.29416 1871.6534 954.08298 1869.6294 957.65625 1866.0312 C 962.39903 1856.316 963.85922 1845.195 969.09375 1835.6875 C 973.34559 1836.6369 977.54403 1837.8588 981.78125 1838.9062 C 985.13598 1832.79 986.15689 1825.6849 989.9375 1819.7812 C 991.20483 1816.9196 994.81471 1817.3186 997.34375 1816.4062 C 996.49336 1813.1073 995.70221 1809.762 995.03125 1806.4375 C 997.51948 1804.3894 1000.5409 1802.9009 1002.5312 1800.3125 C 1003.7351 1796.9763 1003.6573 1793.3589 1003.9375 1789.875 C 1001.5014 1789.0557 996.26899 1790.1901 997.3125 1786.1562 C 1000.1396 1783.096 1003.8582 1781.0598 1006.9688 1778.3125 C 1002.5686 1769.3287 997.66781 1760.5952 993.1875 1751.6562 C 991.14106 1746.7975 985.67649 1745.3057 981.5625 1742.75 C 970.8934 1736.7468 957.94922 1732.0283 952.5 1720.1562 C 952.65889 1716.2868 953.83946 1712.5441 954.625 1708.7812 C 952.52167 1707.2961 950.39431 1705.8333 948.25 1704.4375 C 948.24598 1704.4462 948.25401 1704.46 948.25 1704.4688 L 947.25 1703.625 L 944.1875 1701.9375 L 943.5625 1701.5625 C 943.54369 1701.5494 943.51882 1701.5444 943.5 1701.5312 L 943.3125 1701.4062 C 939.12474 1698.5153 934.56797 1696.1419 930.6875 1692.8438 C 929.84207 1690.1627 932.10288 1688.0193 933.5 1686.0312 C 938.33465 1680.2129 943.13681 1674.3496 947.65625 1668.2812 C 936.0295 1662.2893 923.09871 1659.3619 911.3125 1653.7188 C 911.32796 1645.8719 912.22858 1638.0507 912.53125 1630.2188 C 912.41547 1625.7696 917.36635 1624.3762 920.3125 1622.1875 C 919.62729 1612.1 917.97452 1602.1207 917.03125 1592.0625 C 917.10117 1586.9736 911.581 1585.5166 908.125 1583.1562 C 903.12347 1580.5941 898.61569 1576.891 893.1875 1575.3125 z "
         transform="matrix(0.69138004,0,0,0.69138004,-95.155614,-268.57683)"
         id="path80" />
    </g>
    <g
       id="SouthEast"
       class="SouthEast"
       style="fill:#999999;fill-opacity:1">
      <path
         style="fill:#999999;fill-opacity:1;fill-rule:nonzero;stroke:none"
         d="M 1086.7812 1818.0938 C 1077.5162 1824.4203 1068.2005 1830.6807 1059.2188 1837.4062 C 1061.138 1840.8264 1064.4096 1843.8203 1064.9688 1847.8125 C 1063.3284 1851.9698 1059.9371 1855.1345 1057.3125 1858.6875 C 1055.5305 1860.5188 1053.6869 1863.9342 1050.6562 1862.5312 C 1047.9687 1858.6726 1046.0465 1854.3852 1043.625 1850.375 C 1036.3873 1852.4176 1029.1174 1854.4529 1022.0625 1857.0625 C 1022.1978 1858.9032 1022.3553 1860.7613 1022.5312 1862.625 C 1022.5517 1862.6276 1022.5733 1862.6224 1022.5938 1862.625 L 1022.3438 1865.0938 L 1021.375 1867.6562 L 1021.2188 1867.7812 C 1013.5429 1869.35 1006.5558 1873.7371 998.84375 1875.375 C 994.70018 1866.1054 991.53357 1856.344 988.9375 1846.5625 C 990.59957 1843.3479 994.72959 1842.864 997.625 1841.1562 C 995.26051 1837.7951 992.63807 1834.621 989.84375 1831.625 C 988.00789 1835.5627 986.28888 1839.5802 984.46875 1843.5312 C 980.01349 1843.1451 975.69737 1841.9241 971.4375 1840.6562 C 968.07669 1848.8379 965.73606 1857.4003 962.65625 1865.6875 C 961.15318 1871.2405 954.97879 1872.8952 950.75 1875.875 C 948.18969 1877.7734 944.04329 1878.9681 943.84375 1882.7188 C 941.61273 1899.8231 939.91085 1917.0004 937.5625 1934.0938 C 937.27998 1937.5536 936.3661 1941.2853 938.03125 1944.5625 C 942.89555 1955.1351 947.53035 1965.8433 952.5625 1976.3438 L 952.59375 1976.3438 L 952.6875 1976.625 L 955.59375 1982.75 L 955.625 1982.7812 C 958.04564 1988.4832 961.43691 1993.731 963.53125 1999.5938 C 961.55235 2001.8403 959.52774 2004.0469 957.5625 2006.3125 C 960.90562 2011.8702 960.75225 2018.6755 963.84375 2024.3125 L 964.125 2026.125 L 964.46875 2029.375 L 964.375 2031.6875 L 964.40625 2031.7812 C 964.06321 2037.2528 964.85646 2042.8124 963.71875 2048.1875 C 956.58095 2051.9666 948.70038 2054.1194 941.34375 2057.4375 C 943.56061 2073.2379 946.22253 2088.9723 948.40625 2104.7812 C 948.85333 2108.6722 950.02296 2112.5488 949.625 2116.5 C 947.87268 2119.3343 944.79826 2120.9138 942.1875 2122.8438 C 933.08607 2118.6231 924.85049 2112.8066 915.78125 2108.5625 C 910.75902 2107.6537 905.6921 2109.5466 900.6875 2110 C 903.15649 2114.9935 906.22124 2119.6482 909.21875 2124.3438 C 912.25242 2124.3177 915.29816 2124.2584 918.34375 2124.3438 C 917.90445 2128.8083 917.01878 2133.2277 916.09375 2137.625 C 917.71838 2138.694 919.5081 2139.5503 920.90625 2140.9688 C 922.92313 2146.5631 923.71846 2152.5236 925.21875 2158.2812 C 931.90231 2159.873 934.87825 2166.9918 941.0625 2169.5 C 945.04685 2171.1415 949.3377 2171.8938 953.53125 2172.8438 C 955.60269 2169.5946 956.79203 2165.4395 960.03125 2163.1562 C 967.63636 2160.007 976.01983 2159.5819 983.875 2157.25 C 987.05884 2156.033 988.78427 2152.8276 990.78125 2150.2812 C 988.87587 2145.0241 985.20691 2140.5152 983.90625 2135.0625 C 984.83163 2133.7751 985.83447 2132.5624 986.9375 2131.4375 C 998.60456 2139.3993 1009.0199 2149.2277 1020.9062 2156.8125 C 1029.9481 2157.2389 1039.1172 2156.6318 1048.1875 2156.1562 C 1048.1912 2156.1365 1048.1838 2156.1135 1048.1875 2156.0938 L 1049.2812 2156.1875 L 1050.6562 2156.0312 L 1052.7812 2155.0938 L 1053.2188 2155.1875 C 1062.0826 2158.742 1069.385 2165.1864 1078.125 2168.9688 C 1080.1619 2164.6296 1081.9915 2160.1782 1084.2812 2155.9688 C 1108.7458 2151.1102 1133.3499 2147.1235 1157.8438 2142.4062 L 1158.4062 2142.375 L 1159.9688 2142 L 1162.4375 2141.1562 L 1162.7812 2141.1562 C 1176.1364 2146.606 1190.1534 2150.3509 1203.75 2155.1875 C 1213.4949 2157.9206 1222.8895 2162.3794 1232.9062 2163.8438 C 1238.8303 2158.2489 1243.0053 2151.1365 1248.5 2145.1562 C 1250.818 2142.7233 1254.2379 2141.9197 1257.3125 2140.875 C 1267.5805 2137.8824 1277.8055 2134.7887 1288.0625 2131.75 C 1299.795 2128.4933 1305.8302 2115.0866 1318.0938 2113.1562 L 1319.25 2113.125 L 1321.0938 2112.7812 L 1323.125 2112.8438 L 1325.625 2113.2188 L 1326.4062 2113.4375 L 1326.4375 2113.4688 C 1330.4422 2115.4563 1335.0303 2116.3085 1339.4688 2116.5938 C 1339.4396 2111.755 1337.8812 2106.5881 1340.25 2102.0625 C 1342.4037 2097.3813 1344.8239 2092.8075 1347.0938 2088.1875 C 1348.4362 2085.7149 1349.7806 2082.7843 1352.6562 2081.8125 C 1359.7081 2079.2086 1367.6819 2079.1665 1374.1875 2075.0938 C 1383.2542 2069.6027 1392.1993 2063.9475 1401.1562 2058.2812 C 1403.9517 2057.0897 1403.0121 2053.7112 1402.6875 2051.4062 C 1400.8326 2042.5373 1398.7129 2033.7474 1396.9062 2024.875 C 1395.328 2017.9163 1400.3595 2011.8721 1401.8438 2005.3438 C 1390.6291 2006.6958 1379.7711 2009.996 1368.625 2011.75 C 1359.9972 2013.0384 1351.4987 2016.5186 1342.7188 2015.875 C 1334.9389 2011.2803 1330.0086 2002.5641 1321.125 1999.75 C 1311.9353 1996.5092 1303.1132 1992.1666 1293.5312 1990.1562 C 1285.7703 1988.4863 1278.1443 1986.2406 1270.375 1984.6562 C 1268.4541 1984.5829 1265.4981 1983.4238 1264.5 1985.7812 C 1262.0581 1989.579 1261.4306 1994.7588 1257.4688 1997.4062 C 1251.8062 1996.9599 1246.532 1994.4667 1240.9375 1993.6875 C 1238.2066 1994.0981 1235.9383 1995.9836 1233.2188 1996.4688 C 1229.8216 1994.8436 1227.382 1991.8644 1224.5938 1989.4375 C 1220.6508 1999.8723 1217.0438 2010.4136 1213 2020.8125 C 1211.2004 2025.1719 1206.3725 2027.1066 1203.625 2030.6875 L 1202.1562 2031.4375 L 1200.7188 2031.9688 L 1199.125 2032.0312 L 1196.7188 2031.2812 L 1194.6875 2030.2188 L 1194.0625 2030.0625 C 1191.4686 2028.5368 1188.5412 2027.479 1185.8438 2026.25 C 1183.3231 2028.7553 1180.8651 2031.337 1178.3125 2033.8125 C 1176.759 2035.0917 1175.1768 2037.5118 1172.9062 2036.1562 C 1169.9117 2033.2325 1167.9989 2029.426 1165.6875 2026 C 1162.5697 2025.5972 1159.4523 2025.2767 1156.3438 2024.9375 C 1155.2485 2022.5106 1154.2348 2020.0798 1153.1875 2017.6562 C 1149.3247 2021.0908 1147.0587 2027.1328 1141.3438 2027.6875 C 1141.1911 2023.1007 1141.8397 2018.5889 1142.0312 2014.0312 C 1142.2254 2012.1965 1140.2144 2011.3541 1139.0625 2010.4062 C 1131.5643 2005.5973 1124.1213 2000.708 1116.625 1995.9062 L 1116.125 1995.4375 L 1114.5312 1994.5625 L 1113.1875 1993.4688 L 1112.8438 1991.9688 L 1113.1562 1988.6562 L 1113.7812 1986.4375 C 1113.9341 1986.0642 1114.066 1985.6855 1114.2188 1985.3125 C 1114.2091 1985.31 1114.1972 1985.315 1114.1875 1985.3125 L 1114.5 1984.625 L 1115.5938 1981.6875 L 1115.5938 1981.5312 C 1116.2952 1979.0773 1117.1931 1976.6612 1117.4688 1974.125 C 1116.1586 1968.5154 1112.9923 1963.5823 1111.5312 1958.0312 C 1109.5436 1948.5407 1106.3826 1939.3341 1103.3125 1930.1562 C 1098.6519 1928.7058 1093.351 1928.5824 1089.1562 1926.0938 C 1084.651 1920.1522 1080.4091 1913.9677 1076.5 1907.625 C 1073.8931 1903.9817 1078.4349 1901.046 1081.375 1899.8125 C 1086.0934 1898.4896 1087.0326 1906.1105 1091.5938 1905.9688 C 1095.1897 1906.1328 1098.7759 1905.5355 1102.3438 1905.0938 C 1102.5948 1902.9797 1102.8371 1900.8789 1103.0625 1898.7812 C 1095.4892 1895.638 1087.6863 1893.0155 1080.4375 1889.1562 C 1081.8612 1882.8646 1084.5152 1876.9401 1086.25 1870.75 C 1087.3384 1864.4754 1083.7106 1858.2409 1084.9062 1852 C 1088.2145 1847.1106 1092.7465 1843.1895 1096.5312 1838.6875 C 1093.5824 1831.6819 1090.3692 1824.7891 1086.7812 1818.0938 z M 998.59375 2166.875 C 997.30397 2166.9968 996.19081 2167.9618 995.1875 2168.7812 C 986.5043 2176.7303 974.50065 2179.3536 963.4375 2182.25 C 962.11979 2183.001 961.35763 2184.3811 960.375 2185.5 C 963.95779 2185.7142 967.9234 2184.8936 971.09375 2187.0625 C 975.71817 2189.7369 980.26225 2192.5784 984.84375 2195.3438 C 989.60819 2198.2121 993.06056 2202.6641 996.90625 2206.5938 C 1002.6425 2205.28 1008.785 2204.584 1013.9062 2201.5312 C 1015.2779 2197.8407 1015.0349 2193.7326 1016.6875 2190.1562 C 1020.331 2186.4648 1026.5881 2186.6028 1029.3125 2181.75 C 1026.0006 2178.6367 1022.4821 2175.5486 1018.125 2174.0312 C 1012.0185 2171.8241 1006.1956 2168.7945 999.9375 2167.0625 C 999.46852 2166.88 999.02368 2166.8344 998.59375 2166.875 z "
         transform="matrix(0.69138004,0,0,0.69138004,-95.155614,-268.57683)"
         id="path132" />
    </g>
    <g
       id="EastOfEngland"
       class="EastOfEngland"
       style="fill:#999999;fill-opacity:1">
      <path
         style="fill:#999999;fill-opacity:1;fill-rule:nonzero;stroke:none"
         d="M 1322.0938 1625.4375 C 1321.214 1625.4429 1320.3521 1625.4569 1319.4688 1625.5 C 1301.0305 1625.5913 1282.589 1625.4388 1264.1562 1625.5625 C 1261.3039 1625.0511 1260.0443 1627.913 1259.125 1630.0312 C 1253.5404 1643.3855 1248.0348 1656.7658 1242.3125 1670.0625 C 1240.9991 1672.2239 1240.2375 1675.9888 1237.0312 1675.6875 C 1232.5321 1674.295 1228.6644 1671.4692 1224.3438 1669.6562 C 1220.0297 1674.5947 1216.1405 1679.8624 1211.8438 1684.8125 L 1210.2812 1685.625 L 1208.9062 1686.0938 L 1207.2188 1686.1875 L 1205.875 1686.1875 L 1205.7812 1686.1875 L 1205.75 1686.1875 C 1201.5222 1686.6478 1197.2886 1687.2657 1193.125 1688.0938 C 1191.0548 1694.1873 1189.9233 1700.539 1187.8125 1706.625 C 1182.9569 1706.2731 1178.8369 1703.0369 1173.9375 1703 C 1163.6152 1702.8321 1153.2884 1703.0455 1142.9688 1702.9062 C 1132.3762 1702.3477 1123.1671 1708.494 1113.5938 1712.0625 C 1113.7913 1715.2522 1114.1155 1718.4517 1114.5938 1721.625 C 1117.8585 1722.0199 1121.1308 1722.2992 1124.4062 1722.7188 C 1124.649 1726.5117 1124.8206 1730.3257 1125.1562 1734.125 C 1128.3253 1736.4586 1131.579 1738.7225 1134.7812 1741.0312 C 1134.2705 1747.5959 1134.4425 1754.5298 1132.0625 1760.7188 C 1126.4496 1765.7338 1119.7165 1769.3395 1113.7812 1773.9688 C 1114.313 1777.1342 1114.2637 1780.6363 1116.0938 1783.4062 L 1116.25 1783.875 L 1116.75 1786.5625 L 1116.3125 1788.3125 L 1115.4062 1789.7812 L 1114.3125 1790.8125 L 1113.2188 1791.6562 C 1112.3794 1791.9017 1111.5275 1792.1369 1110.6875 1792.375 C 1109.1715 1795.7473 1107.6889 1799.1252 1105.9688 1802.4062 C 1101.3526 1801.9688 1096.8015 1801.2543 1092.25 1800.4375 C 1091.434 1804.5092 1089.4733 1808.4592 1089.5938 1812.6562 C 1092.5605 1821.7506 1098.2839 1829.7183 1101.0938 1838.875 C 1099.5434 1843.0898 1095.6524 1845.8037 1092.8125 1849.125 C 1091.2895 1851.0231 1088.5754 1852.701 1089.0938 1855.5 C 1089.388 1860.2946 1090.9637 1864.9477 1090.9062 1869.7812 C 1089.6579 1875.6358 1087.0878 1881.0953 1085.5312 1886.875 C 1092.5958 1890.0233 1099.8304 1892.7688 1106.9062 1895.9062 C 1107.1069 1897.2592 1107.2938 1898.6442 1107.5625 1900 L 1106.9062 1905.6562 L 1106.375 1908.1562 L 1105.1875 1909.0625 L 1104.3438 1909.2812 C 1098.8729 1909.6922 1093.3458 1910.9587 1087.9062 1910.0312 C 1085.4183 1908.1647 1083.2815 1905.8813 1080.75 1904.0938 C 1082.2037 1910.2605 1086.6719 1915.0348 1090.0625 1920.2188 C 1093.6336 1926.1006 1102.3683 1923.2464 1106.75 1927.75 C 1111.0563 1937.0638 1112.3637 1947.4904 1116.7188 1956.8125 C 1123.4868 1955.7851 1130.5394 1955.9374 1137.0938 1953.8125 C 1147.2052 1948.621 1156.3114 1941.6222 1166.4062 1936.4062 C 1171.9094 1935.2746 1177.6252 1936.1583 1183.2188 1935.6875 C 1183.2224 1935.6785 1183.2151 1935.6652 1183.2188 1935.6562 L 1186.5312 1935.8125 L 1188.625 1937.5625 L 1188.8438 1937.9688 C 1189.1253 1940.3259 1189.6508 1942.6786 1190.2188 1944.9688 C 1193.3106 1948.2836 1197.0158 1950.9956 1200.6875 1953.6562 C 1202.4154 1955.0435 1204.6243 1953.8904 1206.5312 1953.5938 C 1214.0491 1951.5393 1221.62 1949.5845 1229.25 1947.9688 C 1233.1821 1954.8026 1236.3302 1962.3806 1237.8438 1970.0938 C 1234.4475 1975.3511 1229.7305 1979.5781 1226 1984.5938 C 1228.3297 1987.0027 1230.8342 1989.2562 1233.3438 1991.5 C 1235.3975 1990.5857 1237.3848 1989.4352 1239.625 1989 C 1245.2403 1989.8022 1250.5837 1991.9309 1256.2188 1992.75 C 1259.0958 1987.8621 1260.6337 1982.2766 1263.8438 1977.5938 C 1266.6722 1976.0764 1270.0359 1976.6579 1273.125 1976.25 C 1283.7543 1975.2628 1294.3823 1974.3213 1305 1973.1875 C 1308.9696 1973.0766 1311.076 1969.3663 1313.2812 1966.625 C 1317.9922 1959.9582 1323.639 1953.9132 1327.7812 1946.875 C 1328.7746 1940.0839 1328.1009 1933.1532 1328.25 1926.3125 C 1328.9251 1920.781 1323.2674 1917.9355 1321.2188 1913.4688 C 1321.0131 1911.613 1321.7702 1910.3133 1323.4688 1909.5938 C 1334.4809 1907.5658 1345.9625 1909.5076 1356.8438 1906.9688 C 1363.9392 1901.7543 1370.0746 1895.2319 1376.2188 1888.9375 C 1373.1698 1887.3951 1367.3253 1887.3977 1367.8438 1882.7188 C 1369.9056 1878.3401 1374.0377 1875.4263 1377.25 1871.9062 L 1377.5312 1871.625 C 1377.5755 1871.5752 1377.6125 1871.5188 1377.6562 1871.4688 L 1381.5 1867.375 L 1383.5938 1864.9688 C 1385.1266 1863.7638 1386.4516 1862.13 1387.8438 1860.875 C 1396.9055 1851.048 1406.9222 1842.1593 1416.125 1832.4688 C 1418.2118 1830.3848 1418.7006 1827.3599 1419.375 1824.625 C 1424.192 1801.9228 1429.5568 1779.3388 1434.3125 1756.625 C 1436.1038 1749.0488 1438.8066 1741.3899 1437.5938 1733.5 C 1437.3041 1731.8321 1437.1328 1729.9496 1436.6875 1728.2188 L 1436.75 1727.8438 L 1435.75 1722.5 L 1435.0312 1718.4062 L 1434.9062 1718.1562 C 1433.0866 1706.1966 1431.0426 1694.2718 1429.0625 1682.3438 C 1428.5446 1677.8336 1424.4295 1675.2617 1421.3438 1672.5 C 1407.3548 1660.7491 1393.5712 1648.7585 1379.5938 1637 C 1374.6623 1632.2121 1367.3277 1632.7393 1361.0938 1631.1875 C 1348.0983 1629.2971 1335.2895 1625.3568 1322.0938 1625.4375 z "
         transform="matrix(0.69138004,0,0,0.69138004,-95.155614,-268.57683)"
         id="path84" />
    </g>
    <g
       id="NorthernIreland"
       class="NorthernIreland"
       style="fill:#999999;fill-opacity:1;stroke:#ffffff;stroke-width:6.23501061999999973;stroke-miterlimit:4;stroke-opacity:1;stroke-dasharray:none">
      <path
         d="m -86.309539,599.05906 12.733406,-3.21473 5.432917,-8.79817 15.9592,-0.5076 1.697786,-3.7223 10.356509,-6.76784 -13.072968,-4.06069 -0.679111,-3.38392 -2.886234,-0.50758 -4.24448,-9.30577 5.432928,0 5.432917,-5.92185 5.942254,6.59864 10.526271,-6.26025 13.921867,-0.33839 -3.395583,-3.04552 0,-6.26025 6.112029,-3.21471 4.074694,-8.62899 -1.358223,-4.90668 0.509337,-6.76784 4.4142434,-5.41424 0.6791111,-6.59865 9.8471727,-9.81335 13.9218408,0 11.544958,4.56828 11.035621,-28.0865 7.470263,4.56829 13.582292,0.84597 6.621365,-6.59862 10.865846,-0.84598 8.488937,-6.59863 10.526272,0 14.091641,8.12139 9.50759,-4.56829 9.16806,9.81336 -0.50933,19.6267 3.39557,-2.70712 5.43291,4.06069 0.50934,7.27542 -2.20712,0.50759 1.01867,2.87633 3.05602,0.33839 12.56362,20.64188 2.03735,8.2906 3.73513,0.1692 -3.22579,-7.44463 3.9049,0 7.30049,9.81336 0.33955,7.9522 -3.73514,3.21472 -12.39384,5.92186 -7.30048,12.68968 0.33956,3.8915 4.41424,-3.38392 8.99827,-8.12141 21.22235,-0.16919 4.7538,12.68969 3.90491,2.53795 0.33956,10.15174 4.7538,4.56829 -3.56536,26.22534 -2.3769,-0.67679 -7.80981,-7.9522 0.50933,-4.73749 2.71646,-1.86115 -0.67912,-8.79817 -2.3769,-6.93703 -1.86756,-0.33839 -0.8489,-3.55312 -4.41424,-2.36873 -4.75381,-1.69196 -0.8489,6.42944 2.88625,3.8915 3.56536,5.58345 0.84888,4.5683 -0.67911,9.13656 -6.96093,6.93703 1.01868,2.03035 5.43291,-3.38391 4.92359,-2.70714 8.31915,9.64416 -14.26141,18.78073 -4.92358,-4.90667 -12.56363,0.50758 -5.09336,6.26025 2.03735,5.24506 -2.37691,13.87407 -18.84543,12.68967 -4.7538,-1.86115 1.01868,-2.03036 -5.09338,0 -5.94225,-8.29058 -12.56361,0.67678 -1.35824,4.90668 -11.714732,0.67678 -14.600964,5.24507 -6.960928,-7.10623 2.037347,-3.7223 -1.697785,-3.38392 4.414244,-6.59863 -7.640039,-8.62899 -3.904919,5.24508 -9.677386,-15.73522 -4.753804,-2.70712 2.207134,-2.19954 -0.679125,-9.13658 -8.319149,-5.24507 -8.998274,-4.90667 -6.791152,9.81335 -4.244469,1.86115 -4.92358,5.58346 5.942254,7.78301 0,6.76783 -10.0169351,3.04552 0.169775,8.62899 -8.48893719,8.96738 -3.05602031,-0.67679 -8.4889384,-7.78301 -3.565344,4.22989 -10.016947,-0.1692 -12.903181,-13.36646 -11.714732,0.67678 -5.772479,-3.21471 -0.848886,-12.52049 -7.640051,-1.52277 -4.244456,-11.16692 -4.584031,2.03037 -13.752079,-21.82626 z"
         id="path4364"
         style="fill:#999999;fill-opacity:1;fill-rule:evenodd;stroke:none;stroke-width:0.69138001999999998;stroke-linecap:butt;stroke-linejoin:miter;stroke-miterlimit:4;stroke-opacity:1;stroke-dasharray:none" />
    </g>
    <g
       transform="translate(-9.1090484e-8,3.208922e-6)"
       id="EastMidlands"
       class="EastMidlands"
       style="fill:#999999;fill-opacity:1">
      <path
         style="fill:#999999;fill-opacity:1;fill-rule:nonzero;stroke:none"
         d="M 1133.5 1452.8438 C 1133.2203 1452.8395 1132.9292 1452.8627 1132.625 1452.9375 C 1124.2145 1453.5788 1115.9089 1455.1777 1107.5625 1456.3125 C 1103.4742 1457.0655 1099.5362 1454.7176 1095.4688 1455.5625 C 1089.4965 1456.7006 1083.4758 1457.7277 1077.625 1459.375 C 1068.6644 1463.7699 1062.362 1472.9547 1052.3125 1475.2188 C 1050.0489 1482.7922 1048.2148 1490.4847 1046.1875 1498.125 C 1046.0259 1498.6535 1045.8879 1499.1847 1045.7812 1499.7188 L 1045.7812 1499.75 C 1045.7729 1499.7923 1045.758 1499.8327 1045.75 1499.875 L 1045.2812 1501.9062 L 1044.0625 1506 L 1042.9688 1508.0312 L 1041.6562 1509.8125 L 1041.3125 1510.25 C 1041.3035 1510.2615 1041.2902 1510.2697 1041.2812 1510.2812 L 1041.0938 1510.5312 C 1038.6954 1513.6533 1036.5759 1516.9962 1034.1875 1520.125 C 1031.3665 1524.39 1024.5933 1522.5977 1022.0312 1527.1562 C 1018.0457 1533.5219 1014.0652 1539.9119 1010.3438 1546.4375 C 1010.1467 1546.7287 1010.0326 1547.0193 1009.9062 1547.3125 L 1009.125 1548.6562 L 1007.1562 1551.9062 L 1005.7812 1553.8125 L 1005.1562 1554.625 C 999.72285 1553.0418 994.58996 1550.6515 989.46875 1548.2812 C 985.07105 1545.8742 980.06861 1547.7024 975.4375 1548.125 C 965.60891 1549.3227 955.84725 1551.0579 945.96875 1551.7188 C 942.93848 1551.5012 941.73583 1547.9173 940.09375 1545.8125 C 931.93563 1532.1714 923.21129 1518.8795 914.9375 1505.3125 C 912.85044 1501.4531 908.85816 1499.4185 905.125 1497.5 C 899.53501 1504.9966 894.7593 1513.0363 889.625 1520.8438 C 893.67584 1527.6345 886.40531 1534.266 888.5625 1541.2812 C 890.71151 1550.19 892.74752 1559.1452 895.125 1568 C 896.0174 1572.2013 900.57765 1573.6155 903.75 1575.75 C 909.11741 1579.1102 915.17514 1581.4969 920 1585.6562 C 922.48784 1597.3098 923.20571 1609.3434 924.59375 1621.1875 C 925.49891 1625.9497 919.86171 1627.2154 916.9375 1629.5625 C 916.3874 1636.5918 915.91378 1643.6127 915.5 1650.6562 C 927.73446 1656.3184 940.74961 1660.0423 953.15625 1665.3125 C 952.7836 1667.0313 952.68742 1668.903 951.53125 1670.3438 C 946.48647 1677.5541 940.09299 1683.7672 935.4375 1691.25 C 939.46249 1693.9745 943.61513 1696.5614 948.09375 1698.5 L 948.28125 1698.75 L 950.53125 1700.5 L 952.25 1701.6875 C 952.24782 1701.6973 952.25218 1701.7089 952.25 1701.7188 C 954.53067 1703.3523 956.82637 1704.9584 959.125 1706.5938 C 958.69385 1710.9653 957.24361 1715.2233 957.09375 1719.625 C 965.25382 1733.2738 982.40217 1736.2114 994.28125 1745.4375 C 999.53565 1753.233 1002.8741 1762.1663 1007.9062 1770.125 L 1007.9062 1770.1875 L 1009.1562 1772 L 1010.7812 1773.9062 C 1011.0407 1776.0324 1011.2798 1778.1718 1011.5625 1780.3125 C 1010.0966 1781.5094 1008.6137 1782.6995 1007.1562 1783.9062 C 1009.3765 1789.5066 1008.0677 1795.6129 1006.8125 1801.2812 C 1005.9795 1804.6822 1002.4104 1806.2172 1000 1808.375 C 1000.8629 1812.3812 1001.824 1816.4049 1001.9688 1820.5312 C 997.90323 1820.7417 991.16108 1821.0727 992.4375 1826.9688 C 995.62194 1832.6466 1000.8038 1836.9377 1003.75 1842.8125 C 1000.4531 1844.7776 996.97935 1846.4272 993.5 1848.0312 C 996.10887 1855.286 998.37884 1862.6484 1001 1869.9062 C 1006.7833 1868.481 1012.2699 1866.1103 1017.8125 1863.9688 C 1017.8184 1860.7284 1017.7564 1857.4747 1017.8125 1854.25 C 1026.6711 1850.8368 1035.7653 1847.5924 1045.0938 1845.8125 C 1048.5051 1848.8942 1050.1 1853.3975 1052.6875 1857.125 C 1055.5166 1854.1204 1058.0677 1850.8494 1060.5938 1847.5938 C 1058.2443 1843.8732 1055.6605 1840.2996 1053.5625 1836.4375 C 1062.8564 1828.5474 1073.7427 1822.7122 1083.0625 1814.9062 C 1085.1515 1808.5635 1087.3322 1802.2586 1089.1875 1795.8438 C 1094.059 1796.1887 1098.8475 1797.2246 1103.7188 1797.6562 C 1105.3964 1793.2755 1106.6005 1788.0276 1111.6875 1786.5 C 1110.8881 1781.761 1109.0401 1777.0561 1109.4062 1772.2188 C 1115.1403 1766.852 1122.3774 1763.4056 1128.25 1758.2188 C 1129.7814 1753.4735 1129.9229 1748.4409 1130.5312 1743.5312 C 1127.5031 1741.1365 1124.3866 1738.8714 1121.2188 1736.6875 C 1120.953 1733.24 1120.7748 1729.8064 1120.4688 1726.375 C 1117.2995 1726.0408 1114.119 1725.7789 1110.9688 1725.4062 C 1110.1568 1721.3697 1109.5653 1717.3163 1108.8125 1713.2812 L 1108.875 1712.875 L 1109.0312 1710.375 L 1110 1708.6875 L 1110.4375 1708.4062 C 1120.5786 1705.7786 1129.5397 1698.2894 1140.4375 1699.1875 C 1148.169 1699.2428 1155.887 1699.263 1163.625 1699.25 C 1170.8515 1699.2925 1178.2556 1698.6112 1185.25 1700.9062 C 1186.9557 1695.4292 1186.9415 1688.9253 1190.7188 1684.4062 C 1197.1785 1682.3481 1204.3047 1682.7301 1210.5 1679.6875 C 1214.2702 1675.9737 1217.1519 1671.4546 1220.3438 1667.25 C 1208.9112 1660.0236 1196.5999 1654.2356 1185.1875 1647 C 1182.0778 1645.4016 1183.3237 1641.1741 1185.5 1639.3125 C 1197.1806 1626.0856 1209.0795 1613.0847 1220.8125 1599.9062 C 1222.5224 1597.9324 1223.9855 1595.578 1223.9688 1592.875 C 1224.4535 1585.5105 1225.3725 1578.1771 1225.7812 1570.8125 C 1226.0961 1567.4494 1224.5446 1564.3591 1223.1875 1561.4062 C 1215.2367 1543.9953 1207.326 1526.5555 1199.5625 1509.0625 C 1198.2497 1506.3765 1197.0559 1503.3498 1194.375 1501.75 C 1190.5961 1499.439 1186.3866 1497.8398 1182.9688 1494.9688 C 1176.6602 1490.0148 1168.9982 1486.8802 1163.3438 1481.0938 C 1154.991 1472.6879 1146.6195 1464.3215 1138.2812 1455.9062 C 1136.8571 1454.6689 1135.458 1452.8735 1133.5 1452.8438 z "
         id="path52"
         transform="matrix(0.69138004,0,0,0.69138004,-95.155614,-268.57684)" />
    </g>
    <g
       id="NorthEast"
       class="NorthEast"
       style="fill:#999999;fill-opacity:1;stroke:none;stroke-opacity:1">
      <path
         style="fill:#999999;fill-opacity:1;fill-rule:nonzero;stroke:none"
         d="m 890.22004,955.84504 -37.19216,38.9415 20.50995,45.06846 -31.26908,26.8569 -15.10657,1.5581 -23.06714,34.7273 c 7.90201,11.1248 11.44307,15.1262 19.43621,26.1902 -3.6726,7.2409 -9.03462,13.5403 -12.4375,20.9063 0.32946,3.4422 1.71092,6.6641 2.65625,9.9687 -2.06763,3.8814 -5.53017,7.272 -6.5625,11.5625 2.38339,5.6768 5.75616,10.9002 8.84375,16.2188 6.65013,-3.713 11.7938,-10.0008 19.21875,-12.2813 3.55887,4.5927 6.87856,9.3401 10.4375,13.9375 0.009,0.012 0.0223,0.02 0.0312,0.031 l 4,7.7813 -0.0312,0.5313 c -0.003,0.01 0.003,0.021 0,0.031 -1.69007,6.17 -5.67379,11.5145 -8.0625,17.4375 2.17762,4.2736 6.4503,7.1136 9.59375,10.6875 -1.38514,3.0014 -2.94568,5.9423 -4.46875,8.875 5.27672,7.1377 12.03134,12.9769 17.59375,19.875 3.66254,4.0932 2.92653,9.9469 3.6875,15 6.36576,-0.3227 12.44087,-2.4922 18.71875,-3.3438 3.30357,0.564 5.8361,3.1547 8.75,4.6876 4.19784,-2.9027 8.18659,-6.1245 12.46875,-8.9063 2.60867,-1.7972 5.86335,-0.5226 8.78125,-0.5313 1.781,-6.72 9.00619,-8.5958 14.9375,-9.9062 5.00078,1.0572 10.11099,2.1701 14.6875,4.5312 4.1145,3.2139 6.29579,8.2824 10.25,11.6876 2.1279,1.3498 4.61543,1.941 6.96875,2.8124 1.03552,-5.092 2.54119,-10.1874 1.75,-15.4374 3.76839,-1.5671 7.384,-3.4811 10.65625,-5.9376 10.4644,-7.6458 21.2768,-14.8178 31.625,-22.625 -4.506,-4.7543 -8.86659,-9.659 -13.75,-14.0312 -3.65332,-3.6643 -7.98665,-7.0083 -10.09375,-11.875 -2.95353,-6.9408 -4.07404,-14.6156 -8.09375,-21.0938 l -1.0625,-5.5312 c 0.005,-0.01 -0.005,-0.025 0,-0.031 -4.77774,-14.311 -9.51028,-28.6362 -14.40625,-42.9063 L 960,1130.625 l -1.4375,-4.4375 -0.0312,0 c -5.89504,-37.718 -11.68671,-75.4387 -17.375,-113.1875 l -3.5625,-7.9688 z"
         transform="matrix(0.69138004,0,0,0.69138004,-95.155614,-268.57683)"
         id="path20"
         inkscape:connector-curvature="0"
         sodipodi:nodetypes="ccccccccccccscccccccccccccccccccccccccccccccc" />
    </g>
  </g>
</svg>
